<?xml version="1.0" encoding="UTF-8" standalone="no"?><svg xmlns="http://www.w3.org/2000/svg" xmlns:xlink="http://www.w3.org/1999/xlink" contentStyleType="text/css" height="751px" preserveAspectRatio="none" style="width:302px;height:751px;background:#FFFFFF;" version="1.1" viewBox="0 0 302 751" width="302px" zoomAndPan="magnify"><defs/><g><!--cluster Album--><g id="cluster_Album"><path d="M100.5,340 L144.5,340 A3.75,3.75 0 0 1 147,342.5 L154,363.6094 L276.5,363.6094 A2.5,2.5 0 0 1 279,366.1094 L279,564.5 A2.5,2.5 0 0 1 276.5,567 L100.5,567 A2.5,2.5 0 0 1 98,564.5 L98,342.5 A2.5,2.5 0 0 1 100.5,340 " fill="none" style="stroke:#000000;stroke-width:1.5;"/><line style="stroke:#000000;stroke-width:1.5;" x1="98" x2="154" y1="363.6094" y2="363.6094"/><text fill="#000000" font-family="sans-serif" font-size="14" font-weight="bold" lengthAdjust="spacing" textLength="43" x="102" y="356.5332">Album</text></g><!--cluster Bilder--><g id="cluster_Bilder"><path d="M101,591 L144,591 A3.75,3.75 0 0 1 146.5,593.5 L153.5,614.6094 L276,614.6094 A2.5,2.5 0 0 1 278.5,617.1094 L278.5,741.5 A2.5,2.5 0 0 1 276,744 L101,744 A2.5,2.5 0 0 1 98.5,741.5 L98.5,593.5 A2.5,2.5 0 0 1 101,591 " fill="none" style="stroke:#000000;stroke-width:1.5;"/><line style="stroke:#000000;stroke-width:1.5;" x1="98.5" x2="153.5" y1="614.6094" y2="614.6094"/><text fill="#000000" font-family="sans-serif" font-size="14" font-weight="bold" lengthAdjust="spacing" textLength="42" x="102.5" y="607.5332">Bilder</text></g><!--cluster Metadaten--><g id="cluster_Metadaten"><path d="M84.5,6 L160.5,6 A3.75,3.75 0 0 1 163,8.5 L170,29.6094 L292.5,29.6094 A2.5,2.5 0 0 1 295,32.1094 L295,264.5 A2.5,2.5 0 0 1 292.5,267 L84.5,267 A2.5,2.5 0 0 1 82,264.5 L82,8.5 A2.5,2.5 0 0 1 84.5,6 " fill="none" style="stroke:#000000;stroke-width:1.5;"/><line style="stroke:#000000;stroke-width:1.5;" x1="82" x2="170" y1="29.6094" y2="29.6094"/><text fill="#000000" font-family="sans-serif" font-size="14" font-weight="bold" lengthAdjust="spacing" textLength="75" x="86" y="22.5332">Metadaten</text></g><g id="elem_Album erstellen"><ellipse cx="188.376" cy="393.0752" fill="#F1F1F1" rx="73.376" ry="17.0752" style="stroke:#181818;stroke-width:0.5;"/><text fill="#000000" font-family="sans-serif" font-size="14" lengthAdjust="spacing" textLength="97" x="136.876" y="397.5918">Album erstellen</text></g><g id="elem_Album loeschen"><ellipse cx="188.481" cy="462.7962" fill="#F1F1F1" rx="74.481" ry="17.2962" style="stroke:#181818;stroke-width:0.5;"/><text fill="#000000" font-family="sans-serif" font-size="14" lengthAdjust="spacing" textLength="100" x="135.481" y="467.3128">Album loeschen</text></g><g id="elem_Album anzeigen"><ellipse cx="188.481" cy="532.7962" fill="#F1F1F1" rx="74.481" ry="17.2962" style="stroke:#181818;stroke-width:0.5;"/><text fill="#000000" font-family="sans-serif" font-size="14" lengthAdjust="spacing" textLength="100" x="135.481" y="537.3128">Album anzeigen</text></g><g id="elem_Bilder uploaden"><ellipse cx="188.6111" cy="644.2222" fill="#F1F1F1" rx="74.1111" ry="17.2222" style="stroke:#181818;stroke-width:0.5;"/><text fill="#000000" font-family="sans-serif" font-size="14" lengthAdjust="spacing" textLength="99" x="136.1111" y="648.7388">Bilder uploaden</text></g><g id="elem_Bild loeschen"><ellipse cx="188.2688" cy="712.1538" fill="#F1F1F1" rx="68.7688" ry="16.1538" style="stroke:#181818;stroke-width:0.5;"/><text fill="#000000" font-family="sans-serif" font-size="14" lengthAdjust="spacing" textLength="84" x="143.2688" y="716.6704">Bild loeschen</text></g><g id="elem_Metadaten anzeigen"><ellipse cx="188.6926" cy="62.0385" fill="#F1F1F1" rx="85.6926" ry="19.5385" style="stroke:#181818;stroke-width:0.5;"/><text fill="#000000" font-family="sans-serif" font-size="14" lengthAdjust="spacing" textLength="128" x="124.6926" y="65.767">Metadaten anzeigen</text></g><g id="elem_Metadaten bearbeiten"><ellipse cx="188.3974" cy="154.9795" fill="#F1F1F1" rx="90.3974" ry="20.4795" style="stroke:#181818;stroke-width:0.5;"/><text fill="#000000" font-family="sans-serif" font-size="14" lengthAdjust="spacing" textLength="139" x="118.8974" y="158.708">Metadaten bearbeiten</text></g><g id="elem_Metadaten speichern"><ellipse cx="188.3193" cy="230.9639" fill="#F1F1F1" rx="87.8193" ry="19.9639" style="stroke:#181818;stroke-width:0.5;"/><text fill="#000000" font-family="sans-serif" font-size="14" lengthAdjust="spacing" textLength="133" x="121.8193" y="234.6924">Metadaten speichern</text></g><!--entity User--><g id="elem_User"><ellipse cx="20.5" cy="390.5" fill="#F1F1F1" rx="8" ry="8" style="stroke:#181818;stroke-width:0.5;"/><path d="M20.5,398.5 L20.5,425.5 M7.5,406.5 L33.5,406.5 M20.5,425.5 L7.5,440.5 M20.5,425.5 L33.5,440.5 " fill="none" style="stroke:#181818;stroke-width:0.5;"/><text fill="#000000" font-family="sans-serif" font-size="14" lengthAdjust="spacing" textLength="29" x="6" y="456.5332">User</text></g><g id="elem_Statusbar anzeigen"><ellipse cx="188.669" cy="305.0338" fill="#F1F1F1" rx="83.169" ry="19.0338" style="stroke:#181818;stroke-width:0.5;"/><text fill="#000000" font-family="sans-serif" font-size="14" lengthAdjust="spacing" textLength="122" x="127.669" y="308.7623">Statusbar anzeigen</text></g><!--link User to Album erstellen--><g id="link_User_Album erstellen"><path d="M35.08,418.71 C54.34,415.46 90.85,409.3 123.31,403.83 " fill="none" id="User-to-Album erstellen" style="stroke:#181818;stroke-width:1.0;"/><polygon fill="#181818" points="128.48,402.95,118.9414,400.4975,123.5492,403.7789,120.2677,408.3867,128.48,402.95" style="stroke:#181818;stroke-width:1.0;"/></g><!--link User to Album loeschen--><g id="link_User_Album loeschen"><path d="M35.08,424.44 C56.12,429.76 97.74,440.29 132.17,449 " fill="none" id="User-to-Album loeschen" style="stroke:#181818;stroke-width:1.0;"/><polygon fill="#181818" points="137.2,450.27,129.4599,444.1797,132.3535,449.0405,127.4927,451.9341,137.2,450.27" style="stroke:#181818;stroke-width:1.0;"/></g><!--link User to Album anzeigen--><g id="link_User_Album anzeigen"><path d="M35.04,449.9 C44.01,466.15 57.21,485.61 74,498 C88.41,508.63 106.1,516.08 123.19,521.28 " fill="none" id="User-to-Album anzeigen" style="stroke:#181818;stroke-width:1.0;"/><polygon fill="#181818" points="127.99,522.68,120.4875,516.2994,123.1939,521.2669,118.2264,523.9732,127.99,522.68" style="stroke:#181818;stroke-width:1.0;"/></g><!--link User to Bilder uploaden--><g id="link_User_Bilder uploaden"><path d="M28.6,460.21 C35.83,491.63 49.56,535.51 74,567 C94.06,592.86 125.3,613.14 149.93,626.39 " fill="none" id="User-to-Bilder uploaden" style="stroke:#181818;stroke-width:1.0;"/><polygon fill="#181818" points="154.45,628.78,148.3652,621.0357,150.0304,626.4419,144.6242,628.1071,154.45,628.78" style="stroke:#181818;stroke-width:1.0;"/></g><!--link User to Bild loeschen--><g id="link_User_Bild loeschen"><path d="M24.55,460.02 C30.34,524.06 45.01,647.52 74,679 C85.78,691.79 102.2,699.73 118.89,704.63 " fill="none" id="User-to-Bild loeschen" style="stroke:#181818;stroke-width:1.0;"/><polygon fill="#181818" points="124.07,706.05,116.4584,699.7999,119.2502,704.7199,114.3302,707.5117,124.07,706.05" style="stroke:#181818;stroke-width:1.0;"/></g><!--link User to Metadaten anzeigen--><g id="link_User_Metadaten anzeigen"><path d="M23.87,381.77 C28.93,309.32 43,158.19 74,117 C87.23,99.43 107.55,87.18 127.36,78.78 " fill="none" id="User-to-Metadaten anzeigen" style="stroke:#181818;stroke-width:1.0;"/><polygon fill="#181818" points="132.11,76.83,122.2652,76.5473,127.4845,78.7287,125.3032,83.9481,132.11,76.83" style="stroke:#181818;stroke-width:1.0;"/></g><!--link Metadaten bearbeiten to Metadaten anzeigen--><g id="link_Metadaten bearbeiten_Metadaten anzeigen"><path d="M188.5,134.36 C188.5,120.35 188.5,101.74 188.5,86.91 " fill="none" id="Metadaten bearbeiten-to-Metadaten anzeigen" style="stroke:#181818;stroke-width:1.0;stroke-dasharray:7.0,7.0;"/><polygon fill="#181818" points="188.5,81.63,184.5,90.63,188.5,86.63,192.5,90.63,188.5,81.63" style="stroke:#181818;stroke-width:1.0;"/><text fill="#000000" font-family="sans-serif" font-size="13" lengthAdjust="spacing" textLength="46" x="153.5" y="113.4951">extends</text></g><!--link User to Metadaten speichern--><g id="link_User_Metadaten speichern"><path d="M25.19,381.94 C30.45,347.55 43.18,298.34 74,268 C84.68,257.48 98.39,249.96 112.55,244.57 " fill="none" id="User-to-Metadaten speichern" style="stroke:#181818;stroke-width:1.0;"/><polygon fill="#181818" points="117.37,242.82,107.5442,242.1461,112.6727,244.5333,110.2855,249.6618,117.37,242.82" style="stroke:#181818;stroke-width:1.0;"/></g><!--link User to Statusbar anzeigen--><g id="link_User_Statusbar anzeigen"><path d="M35.15,401.28 C44.86,388.32 58.83,371.67 74,360 C93.6,344.92 118.01,332.44 139.15,323.2 " fill="none" id="User-to-Statusbar anzeigen" style="stroke:#181818;stroke-width:1.0;"/><polygon fill="#181818" points="143.89,321.16,134.0419,321.0398,139.2965,323.1348,137.2015,328.3894,143.89,321.16" style="stroke:#181818;stroke-width:1.0;"/></g><!--SRC=[ROv1QiCm44NtEiNiMYySxxq8fFkiGWymbYQsw5WIqWX2I-uU6HSi4s-4UF_pttnC8Y7rNHSOdUIPJzhFNKxKQYoFiJX6d9LYkWk8XsZ7IS3OI5giTqhrtubYhrH0_OCZmOM7FCEVMZ2qxHa-Lq8n2J6JQzuYzfJqT9IW-oKxBibpCtnPDgLMA_vH3kpHx8UMg39KErSID2ZaTbCRtUGL70ZZGBPy6pWTrw47UXHYqk5i2cJBBN4zPclS12Md0MCbVW40]--></g></svg>