<?xml version="1.0" encoding="UTF-8" standalone="no"?><svg xmlns="http://www.w3.org/2000/svg" xmlns:xlink="http://www.w3.org/1999/xlink" contentStyleType="text/css" height="183px" preserveAspectRatio="none" style="width:342px;height:183px;background:#FFFFFF;" version="1.1" viewBox="0 0 342 183" width="342px" zoomAndPan="magnify"><defs/><g><!--entity User--><g id="elem_User"><ellipse cx="170.5" cy="14" fill="#F1F1F1" rx="8" ry="8" style="stroke:#181818;stroke-width:0.5;"/><path d="M170.5,22 L170.5,49 M157.5,30 L183.5,30 M170.5,49 L157.5,64 M170.5,49 L183.5,64 " fill="none" style="stroke:#181818;stroke-width:0.5;"/><text fill="#000000" font-family="sans-serif" font-size="14" lengthAdjust="spacing" textLength="29" x="156" y="80.0332">User</text></g><g id="elem_Album Erstellen"><ellipse cx="79.7427" cy="160.6485" fill="#F1F1F1" rx="73.7427" ry="17.1485" style="stroke:#181818;stroke-width:0.5;"/><text fill="#000000" font-family="sans-serif" font-size="14" lengthAdjust="spacing" textLength="98" x="27.7427" y="165.1651">Album Erstellen</text></g><g id="elem_Bilder uploaden"><ellipse cx="262.6111" cy="160.7222" fill="#F1F1F1" rx="74.1111" ry="17.2222" style="stroke:#181818;stroke-width:0.5;"/><text fill="#000000" font-family="sans-serif" font-size="14" lengthAdjust="spacing" textLength="99" x="210.1111" y="165.2388">Bilder uploaden</text></g><!--link User to Album Erstellen--><g id="link_User_Album Erstellen"><path d="M155.88,63.82 C139.39,84.47 112.67,117.95 95.6,139.33 " fill="none" id="User-to-Album Erstellen" style="stroke:#181818;stroke-width:1.0;"/><polygon fill="#181818" points="92.32,143.44,101.0536,138.8876,95.433,139.5273,94.7933,133.9067,92.32,143.44" style="stroke:#181818;stroke-width:1.0;"/></g><!--link User to Bilder uploaden--><g id="link_User_Bilder uploaden"><path d="M185.08,63.56 C201.8,84.28 229.13,118.15 246.44,139.61 " fill="none" id="User-to-Bilder uploaden" style="stroke:#181818;stroke-width:1.0;"/><polygon fill="#181818" points="249.77,143.72,247.2202,134.2069,246.6257,139.8324,241.0001,139.2379,249.77,143.72" style="stroke:#181818;stroke-width:1.0;"/></g><!--SRC=[KyyeAIaejjBNByX9p2ifpStHIyxFrIyjJjLDJWGIAPc9wKM9kLnSLg75gKLMN5mWIa5Nrqv1mp4dgJHNmRMek2Gr9oSrJnD9oYap9mN8BYt8oKzC0Ka10000]--></g></svg>